<svg xmlns="http://www.w3.org/2000/svg" xmlns:xlink="http://www.w3.org/1999/xlink" width="742" height="556" viewBox="0 0 742 556"><rect x="0" y="0" width="742" height="556" rx="29" fill="#ffffff"/><g transform="translate(51 38)"><defs>
    <g id="eu-d">
      <g id="eu-b">
        <path id="eu-a" d="m0-1-.3 1 .5.1z"/>
        <use xlink:href="#eu-a" transform="scale(-1 1)"/>
      </g>
      <g id="eu-c">
        <use xlink:href="#eu-b" transform="rotate(72)"/>
        <use xlink:href="#eu-b" transform="rotate(144)"/>
      </g>
      <use xlink:href="#eu-c" transform="scale(-1 1)"/>
    </g>
  </defs>
  <path fill="#039" d="M0 0h640v480H0z"/>
  <g fill="#fc0" transform="translate(320 242.3)scale(23.7037)">
    <use xlink:href="#eu-d" width="100%" height="100%" y="-6"/>
    <use xlink:href="#eu-d" width="100%" height="100%" y="6"/>
    <g id="eu-e">
      <use xlink:href="#eu-d" width="100%" height="100%" x="-6"/>
      <use xlink:href="#eu-d" width="100%" height="100%" transform="rotate(-144 -2.3 -2.1)"/>
      <use xlink:href="#eu-d" width="100%" height="100%" transform="rotate(144 -2.1 -2.3)"/>
      <use xlink:href="#eu-d" width="100%" height="100%" transform="rotate(72 -4.7 -2)"/>
      <use xlink:href="#eu-d" width="100%" height="100%" transform="rotate(72 -5 .5)"/>
    </g>
    <use xlink:href="#eu-e" width="100%" height="100%" transform="scale(-1 1)"/>
  </g><rect x="4" y="4" width="632" height="472" rx="12" fill="none" stroke="#10203b" stroke-opacity="0.14" stroke-width="8"/></g></svg>