<svg xmlns="http://www.w3.org/2000/svg" xmlns:xlink="http://www.w3.org/1999/xlink" width="742" height="556" viewBox="0 0 742 556"><rect x="0" y="0" width="742" height="556" rx="29" fill="#ffffff"/><g transform="translate(51 38)"><defs>
    <clipPath id="ly-a">
      <path d="M166.7-20h666.6v500H166.7z"/>
    </clipPath>
  </defs>
  <g clip-path="url(#ly-a)" transform="matrix(.96 0 0 .96 -160 19.2)">
    <path fill="#239e46" d="M0-20h1000v500H0z"/>
    <path fill="#000001" d="M0-20h1000v375H0z"/>
    <path fill="#e70013" d="M0-20h1000v125H0z"/>
    <path fill="#fff" d="M544.2 185.8a54.3 54.3 0 1 0 0 88.4 62.5 62.5 0 1 1 0-88.4M530.4 230l84.1-27.3-52 71.5v-88.4l52 71.5z"/>
  </g><rect x="4" y="4" width="632" height="472" rx="12" fill="none" stroke="#10203b" stroke-opacity="0.14" stroke-width="8"/></g></svg>