<svg xmlns="http://www.w3.org/2000/svg" xmlns:xlink="http://www.w3.org/1999/xlink" width="742" height="556" viewBox="0 0 742 556"><rect x="0" y="0" width="742" height="556" rx="29" fill="#ffffff"/><g transform="translate(51 38)"><path fill="#cd2a3e" d="M0 0h640v480H0z"/>
  <path fill="#006233" d="M0 72h640v336H0z"/>
  <path fill="#ffc400" d="M470 154.6a150 150 0 0 1-300 0 155 155 0 0 0-5 39.2 155 155 0 1 0 310 0 154 154 0 0 0-5-39.2" class="mr-st1"/>
  <path fill="#ffc400" d="m320 93.8-13.5 41.5H263l35.3 25.6-13.5 41.4 35.3-25.6 35.3 25.6-13.5-41.4 35.3-25.6h-43.6z"/><rect x="4" y="4" width="632" height="472" rx="12" fill="none" stroke="#10203b" stroke-opacity="0.14" stroke-width="8"/></g></svg>