<svg xmlns="http://www.w3.org/2000/svg" xmlns:xlink="http://www.w3.org/1999/xlink" width="742" height="556" viewBox="0 0 742 556"><rect x="0" y="0" width="742" height="556" rx="29" fill="#ffffff"/><g transform="translate(51 38)"><defs>
    <clipPath id="pr-a">
      <path fill-opacity=".7" d="M-37.3 0h682.7v512H-37.3z"/>
    </clipPath>
  </defs>
  <g fill-rule="evenodd" clip-path="url(#pr-a)" transform="translate(35)scale(.9375)">
    <path fill="#ed0000" d="M-37.3 0h768v512h-768z"/>
    <path fill="#fff" d="M-37.3 102.4h768v102.4h-768zm0 204.8h768v102.4h-768z"/>
    <path fill="#0050f0" d="m-37.3 0 440.7 255.7L-37.3 511z"/>
    <path fill="#fff" d="M156.4 325.5 109 290l-47.2 35.8 17.6-58.1-47.2-36 58.3-.4 18.1-58 18.5 57.8 58.3.1-46.9 36.3z"/>
  </g><rect x="4" y="4" width="632" height="472" rx="12" fill="none" stroke="#10203b" stroke-opacity="0.14" stroke-width="8"/></g></svg>