<svg xmlns="http://www.w3.org/2000/svg" xmlns:xlink="http://www.w3.org/1999/xlink" width="742" height="556" viewBox="0 0 742 556"><rect x="0" y="0" width="742" height="556" rx="29" fill="#ffffff"/><g transform="translate(51 38)"><path fill="#e70013" d="M0 0h640v480H0z"/>
  <path fill="#fff" d="M320 119.2a1 1 0 0 0-1 240.3 1 1 0 0 0 1-240.3M392 293a90 90 0 1 1 0-107 72 72 0 1 0 0 107m-4.7-21.7-37.4-12.1-23.1 31.8v-39.3l-37.4-12.2 37.4-12.2V188l23.1 31.8 37.4-12.1-23.1 31.8z"/><rect x="4" y="4" width="632" height="472" rx="12" fill="none" stroke="#10203b" stroke-opacity="0.14" stroke-width="8"/></g></svg>