<svg xmlns="http://www.w3.org/2000/svg" xmlns:xlink="http://www.w3.org/1999/xlink" width="742" height="556" viewBox="0 0 742 556"><rect x="0" y="0" width="742" height="556" rx="29" fill="#ffffff"/><g transform="translate(51 38)"><defs>
    <g id="ve-d" transform="translate(0 -36)">
      <g id="ve-c">
        <g id="ve-b">
          <path id="ve-a" fill="#fff" d="M0-5-1.5-.2l2.8.9z"/>
          <use xlink:href="#ve-a" width="180" height="120" transform="scale(-1 1)"/>
        </g>
        <use xlink:href="#ve-b" width="180" height="120" transform="rotate(72)"/>
      </g>
      <use xlink:href="#ve-b" width="180" height="120" transform="rotate(-72)"/>
      <use xlink:href="#ve-c" width="180" height="120" transform="rotate(144)"/>
    </g>
  </defs>
  <path fill="#cf142b" d="M0 0h640v480H0z"/>
  <path fill="#00247d" d="M0 0h640v320H0z"/>
  <path fill="#fc0" d="M0 0h640v160H0z"/>
  <g id="ve-f" transform="matrix(4 0 0 4 320 336)">
    <g id="ve-e">
      <use xlink:href="#ve-d" width="180" height="120" transform="rotate(10)"/>
      <use xlink:href="#ve-d" width="180" height="120" transform="rotate(30)"/>
    </g>
    <use xlink:href="#ve-e" width="180" height="120" transform="rotate(40)"/>
  </g>
  <use xlink:href="#ve-f" width="180" height="120" transform="rotate(-80 320 336)"/><rect x="4" y="4" width="632" height="472" rx="12" fill="none" stroke="#10203b" stroke-opacity="0.14" stroke-width="8"/></g></svg>