<svg xmlns="http://www.w3.org/2000/svg" xmlns:xlink="http://www.w3.org/1999/xlink" width="112" height="112" viewBox="0 0 112 112"><rect x="10" y="10" width="92" height="92" rx="28" fill="#ffffff"/><rect x="10" y="10" width="92" height="92" rx="28" fill="#dbeafe" opacity="0.8"/><rect x="10" y="10" width="92" height="92" rx="28" fill="none" stroke="#10203b" stroke-opacity="0.12" stroke-width="2.5"/><circle cx="56" cy="56" r="27" fill="#2563eb" fill-opacity="0.14"/><g transform="translate(27.000 27.000) scale(0.113)"><g class="" transform="translate(0,0)" style=""><path d="M256 32 20 400l60 64 52.1-75.9L176 432l50.5-50.5L256 448l29.5-66.5L336 432l43.9-43.9L432 464l60-64L256 32zm-9 47v78l-39-13 39-65zm18 0 39 65-39 13V79z" fill="#2563eb" ></path></g></g></svg>