<svg xmlns="http://www.w3.org/2000/svg" xmlns:xlink="http://www.w3.org/1999/xlink" width="112" height="112" viewBox="0 0 112 112"><rect x="10" y="10" width="92" height="92" rx="28" fill="#ffffff"/><rect x="10" y="10" width="92" height="92" rx="28" fill="#ede9fe" opacity="0.8"/><rect x="10" y="10" width="92" height="92" rx="28" fill="none" stroke="#10203b" stroke-opacity="0.12" stroke-width="2.5"/><circle cx="56" cy="56" r="27" fill="#7c3aed" fill-opacity="0.14"/><g transform="translate(27.000 27.000) scale(0.113)"><g class="" transform="translate(0,0)" style=""><path d="M256 17.108c-75.73 0-137.122 61.392-137.122 137.122.055 23.25 6.022 46.107 11.58 56.262L256 494.892l119.982-274.244h-.063a137.131 137.131 0 0 0 17.202-66.418C393.122 78.5 331.73 17.108 256 17.108zm0 68.56a68.56 68.56 0 0 1 68.56 68.562A68.56 68.56 0 0 1 256 222.79a68.56 68.56 0 0 1-68.56-68.56A68.56 68.56 0 0 1 256 85.67z" fill="#7c3aed" ></path></g></g></svg>