<svg xmlns="http://www.w3.org/2000/svg" xmlns:xlink="http://www.w3.org/1999/xlink" width="112" height="112" viewBox="0 0 112 112"><rect x="10" y="10" width="92" height="92" rx="28" fill="#ffffff"/><rect x="10" y="10" width="92" height="92" rx="28" fill="#ede9fe" opacity="0.8"/><rect x="10" y="10" width="92" height="92" rx="28" fill="none" stroke="#10203b" stroke-opacity="0.12" stroke-width="2.5"/><circle cx="56" cy="56" r="27" fill="#7c3aed" fill-opacity="0.14"/><g transform="translate(27.000 27.000) scale(0.113)"><g class="" transform="translate(0,0)" style=""><path d="M326.953 22.87 306.68 83.685l20.273 20.273-115.428 115.427c-16.39-8-34.277-14.452-51.84-18.502-14.247-3.285-28.136-4.902-40.802-4.772-16.84.173-31.505 3.44-41.975 9.973L305.914 435.09c11.447-18.345 12.853-49.592 5.2-82.776-4.05-17.564-10.502-35.45-18.5-51.84l115.427-115.43 20.274 20.274 60.817-20.273L326.954 22.87zM159.207 313.84 22.87 489.13l175.29-136.337-38.953-38.953z" fill="#7c3aed" ></path></g></g></svg>