<svg xmlns="http://www.w3.org/2000/svg" xmlns:xlink="http://www.w3.org/1999/xlink" width="112" height="112" viewBox="0 0 112 112"><rect x="10" y="10" width="92" height="92" rx="28" fill="#ffffff"/><rect x="10" y="10" width="92" height="92" rx="28" fill="#ede9fe" opacity="0.8"/><rect x="10" y="10" width="92" height="92" rx="28" fill="none" stroke="#10203b" stroke-opacity="0.12" stroke-width="2.5"/><circle cx="56" cy="56" r="27" fill="#7c3aed" fill-opacity="0.14"/><g transform="translate(27.000 27.000) scale(0.113)"><g class="" transform="translate(0,0)" style=""><path d="M247.002 32v47.725a56.476 56.476 0 0 1 17.996 0V32h-17.996zM256 96.998c-11.5 0-23.002 5.001-23.002 15.002v10.1c7.37-2 15.05-3.098 23.002-3.098 7.953 0 15.632 1.098 23.002 3.098V112c0-10-11.502-15.002-23.002-15.002zm0 40c-28.25 0-53.982 17.938-72.867 42.488-16.345 21.249-26.934 47.277-29.496 67.516h204.726c-2.562-20.239-13.15-46.267-29.496-67.516-18.885-24.55-44.617-42.488-72.867-42.488zm-80 78.004h32v17.996h-32v-17.996zm64 0h32v17.996h-32v-17.996zm64 0h32v17.996h-32v-17.996zm-170.29 49.996-7.53 16.004h259.64l-7.53-16.004H133.71zm1.292 34v28.004h17.996v-28.004h-17.996zm56 0v28.004h17.996v-28.004h-17.996zm56 0v28.004h17.996v-28.004h-17.996zm56 0v28.004h17.996v-28.004h-17.996zm56 0v28.004h17.996v-28.004h-17.996zm-270.004 46v16.004h334.004v-16.004H88.998zm14.004 34v60.004h17.996v-60.004h-17.996zm48 0v60.004h17.996v-60.004h-17.996zm48 0v60.004h17.996v-60.004h-17.996zm48 0v60.004h17.996v-60.004h-17.996zm48 0v60.004h17.996v-60.004h-17.996zm48 0v60.004h17.996v-60.004h-17.996zm48 0v60.004h17.996v-60.004h-17.996zm-350.004 78v30.004h430.004v-30.004H40.998z" fill="#7c3aed" ></path></g></g></svg>