<svg xmlns="http://www.w3.org/2000/svg" xmlns:xlink="http://www.w3.org/1999/xlink" width="112" height="112" viewBox="0 0 112 112"><rect x="10" y="10" width="92" height="92" rx="28" fill="#ffffff"/><rect x="10" y="10" width="92" height="92" rx="28" fill="#ffedd5" opacity="0.8"/><rect x="10" y="10" width="92" height="92" rx="28" fill="none" stroke="#10203b" stroke-opacity="0.12" stroke-width="2.5"/><circle cx="56" cy="56" r="27" fill="#ea580c" fill-opacity="0.14"/><g transform="translate(27.000 27.000) scale(0.113)"><g class="" transform="translate(0,0)" style=""><path d="M256 16C123.45 16 16 123.45 16 256s107.45 240 240 240 240-107.45 240-240S388.55 16 256 16zm0 60c99.41 0 180 80.59 180 180s-80.59 180-180 180S76 355.41 76 256 156.59 76 256 76zm-15 30a15 15 0 0 0-15 15v30a15 15 0 0 0 15 15h30a15 15 0 0 0 15-15v-30a15 15 0 0 0-15-15h-30zm16.75 90.03A60 60 0 0 0 196 256a60 60 0 0 0 120 0 60 60 0 0 0-58.25-59.97zM121 226a15 15 0 0 0-15 15v30a15 15 0 0 0 15 15h30a15 15 0 0 0 15-15v-30a15 15 0 0 0-15-15h-30zm240 0a15 15 0 0 0-15 15v30a15 15 0 0 0 15 15h30a15 15 0 0 0 15-15v-30a15 15 0 0 0-15-15h-30zM241 346a15 15 0 0 0-15 15v30a15 15 0 0 0 15 15h30a15 15 0 0 0 15-15v-30a15 15 0 0 0-15-15h-30z" fill="#ea580c" ></path></g></g></svg>