<svg xmlns="http://www.w3.org/2000/svg" xmlns:xlink="http://www.w3.org/1999/xlink" width="112" height="112" viewBox="0 0 112 112"><rect x="10" y="10" width="92" height="92" rx="28" fill="#ffffff"/><rect x="10" y="10" width="92" height="92" rx="28" fill="#ccfbf1" opacity="0.8"/><rect x="10" y="10" width="92" height="92" rx="28" fill="none" stroke="#10203b" stroke-opacity="0.12" stroke-width="2.5"/><circle cx="56" cy="56" r="27" fill="#0f766e" fill-opacity="0.14"/><g transform="translate(27.000 27.000) scale(0.113)"><g class="" transform="translate(0,0)" style=""><path d="M41 41v62h30V41H41zm48 0v62h30V41H89zm48 0v62h30V41h-30zm222 7v71H16v18h343v174H16v18h343v167h18v-39h62v39h18V329h39v-18h-39V137h39v-18h-39V48h-18v71h-62V48h-18zM185 73v30h158V73H185zm192 64h62v46h-62v-46zm-240 16v142h46V153h-46zm-41 16c-12.81 0-23 10.19-23 23s10.19 23 23 23 23-10.19 23-23-10.19-23-23-23zm105 16v110h110V185H201zm176 16h62v46h-62v-46zM41 233v62h78v-62H41zm336 32h62v46h-62v-46zm0 64h62v46h-62v-46zm-137 24c-8.39 0-15 6.61-15 15s6.61 15 15 15 15-6.61 15-15-6.61-15-15-15zm137 40h62v46h-62v-46zm-352 8v94h254v-94H25zm228.977 14.23 4.046 17.54-208 48-4.046-17.54 208-48zM297 449v46h46v-46h-46z" fill="#0f766e" ></path></g></g></svg>