<svg xmlns="http://www.w3.org/2000/svg" xmlns:xlink="http://www.w3.org/1999/xlink" width="112" height="112" viewBox="0 0 112 112"><rect x="10" y="10" width="92" height="92" rx="28" fill="#ffffff"/><rect x="10" y="10" width="92" height="92" rx="28" fill="#ccfbf1" opacity="0.8"/><rect x="10" y="10" width="92" height="92" rx="28" fill="none" stroke="#10203b" stroke-opacity="0.12" stroke-width="2.5"/><circle cx="56" cy="56" r="27" fill="#0f766e" fill-opacity="0.14"/><g transform="translate(27.000 27.000) scale(0.113)"><g class="" transform="translate(0,0)" style=""><path d="M240 18c-4 0-8 4-16 12v32h-48.527C160 46 160 46 144 62c-16 16-16 16 0 32s16 16 30.77 0H224v32h32V94h48.703c15.803 16 15.8 16 31.8 0s16-16 0-32S320.506 46 304 62h-48V30c-8-8-12-12-16-12zM32 96v256h32V96zm64 48-16-16v192l16-16zm144-2c-32 0-48.35 0-49.23 32H112v96h64.625C192 286 208 302 240 302s48-16 64-32c64 0 64 0 64 32v32h96v-64c0-64-32-96-96-96h-80c.35-32-16-32-48-32zm112 208v16h128v-16zm64 32s-38.823 51.66-32 82c4.22 18.76 12.77 30 32 30s27.78-11.24 32-30c6.823-30.34-32-82-32-82z" fill="#0f766e" ></path></g></g></svg>