<svg xmlns="http://www.w3.org/2000/svg" xmlns:xlink="http://www.w3.org/1999/xlink" width="112" height="112" viewBox="0 0 112 112"><rect x="10" y="10" width="92" height="92" rx="28" fill="#ffffff"/><rect x="10" y="10" width="92" height="92" rx="28" fill="#ccfbf1" opacity="0.8"/><rect x="10" y="10" width="92" height="92" rx="28" fill="none" stroke="#10203b" stroke-opacity="0.12" stroke-width="2.5"/><circle cx="56" cy="56" r="27" fill="#0f766e" fill-opacity="0.14"/><g transform="translate(27.000 27.000) scale(0.113)"><g class="" transform="translate(0,0)" style=""><path d="M247 32v23.21C143.25 59.8 59.798 143.25 55.21 247H32v18h23.21C59.8 368.75 143.25 452.202 247 456.79V480h18v-23.21C368.75 452.2 452.202 368.75 456.79 265H480v-18h-23.21C452.2 143.25 368.75 59.798 265 55.21V32h-18zm0 41.223V128h18V73.223C359 77.76 434.24 153 438.777 247H384v18h54.777C434.24 359 359 434.24 265 438.777V384h-18v54.777C153 434.24 77.76 359 73.223 265H128v-18H73.223C77.76 153 153 77.76 247 73.223zM247 224v23h-23v18h23v23h18v-23h23v-18h-23v-23h-18z" fill="#0f766e" ></path></g></g></svg>