<svg xmlns="http://www.w3.org/2000/svg" xmlns:xlink="http://www.w3.org/1999/xlink" width="112" height="112" viewBox="0 0 112 112"><rect x="10" y="10" width="92" height="92" rx="28" fill="#ffffff"/><rect x="10" y="10" width="92" height="92" rx="28" fill="#ccfbf1" opacity="0.8"/><rect x="10" y="10" width="92" height="92" rx="28" fill="none" stroke="#10203b" stroke-opacity="0.12" stroke-width="2.5"/><circle cx="56" cy="56" r="27" fill="#0f766e" fill-opacity="0.14"/><g transform="translate(27.000 27.000) scale(0.113)"><g class="" transform="translate(0,0)" style=""><path d="M247 28v80h18V28zm35 0v64l80-32zm-26 96c-48 48-144 112-192 128 0 64-16 208-32 240h160c16-16 64-144 64-192 0 48 48 176 64 192h160c-16-32-32-176-32-240-48-16-144-80-192-128zM112 300h80v80h-80z" fill="#0f766e" ></path></g></g></svg>