<svg xmlns="http://www.w3.org/2000/svg" xmlns:xlink="http://www.w3.org/1999/xlink" width="120" height="130" viewBox="40 30 120 130"><path d="m 99.9998,45 47.6312,82.5 -95.2623,0 z M 88,119 c 2.1824,-13.288 7.7157,-24.22 22,-29 m 1.829,29 C 109.664,105.712 104.173,94.78 90,90 M 52.3687,127.5 123.816,86.2499" fill="none"  stroke="#10203b" stroke-width="4" stroke-linecap="round" stroke-linejoin="round"></path><path d="m 91,92 c 0,2.7614 -2.2386,5 -5,5 -2.7614,0 -5,-2.2386 -5,-5 0,-2.7614 2.2386,-5 5,-5 2.7614,0 5,2.2386 5,5 z m 28.011,0 c 0,2.7678 -2.243,5.0117 -5.011,5.012 -2.768,-3e-4 -5.011,-2.2442 -5.011,-5.012 0,-2.7676 2.243,-5.0112 5.011,-5.0115 2.768,3e-4 5.011,2.2439 5.011,5.0115 z"  fill="none" stroke="#10203b" stroke-width="4" stroke-linecap="round" stroke-linejoin="round"></path></svg>