<svg xmlns="http://www.w3.org/2000/svg" xmlns:xlink="http://www.w3.org/1999/xlink" width="140" height="100" viewBox="30 50 140 100"><path d="m 40,65 0,70 120,0 0,-70 z" fill="none"  stroke="#10203b" stroke-width="4" stroke-linecap="round" stroke-linejoin="round"></path><path d="m 75,100 c 0,5.523 -4.4772,10 -10,10 -5.5228,0 -10,-4.477 -10,-10 0,-5.5228 4.4772,-10 10,-10 5.5228,0 10,4.4772 10,10 z m 70,0 c 0,5.523 -4.477,10 -10,10 -5.523,0 -10,-4.477 -10,-10 0,-5.5228 4.477,-10 10,-10 5.523,0 10,4.4772 10,10 z m -35,0 c 0,5.523 -4.477,10 -10,10 -5.5228,0 -10,-4.477 -10,-10 0,-5.5228 4.4772,-10 10,-10 5.523,0 10,4.4772 10,10 z"  fill="none" stroke="#10203b" stroke-width="4" stroke-linecap="round" stroke-linejoin="round"></path></svg>