<svg xmlns="http://www.w3.org/2000/svg" viewBox="0 0 1200 860" fill="none">
  <defs>
    <linearGradient id="bg" x1="80" x2="1080" y1="80" y2="780" gradientUnits="userSpaceOnUse">
      <stop stop-color="#0F2142"/>
      <stop offset="1" stop-color="#1A3C75"/>
    </linearGradient>
    <linearGradient id="panel" x1="140" x2="1030" y1="168" y2="720" gradientUnits="userSpaceOnUse">
      <stop stop-color="#EAF4FF" stop-opacity=".92"/>
      <stop offset="1" stop-color="#CFE1FF" stop-opacity=".86"/>
    </linearGradient>
    <linearGradient id="sea" x1="194" x2="710" y1="230" y2="620" gradientUnits="userSpaceOnUse">
      <stop stop-color="#BFDFFF"/>
      <stop offset="1" stop-color="#8DC0FF"/>
    </linearGradient>
    <filter id="shadow" x="88" y="88" width="1024" height="684" filterUnits="userSpaceOnUse" color-interpolation-filters="sRGB">
      <feFlood flood-opacity="0" result="BackgroundImageFix"/>
      <feGaussianBlur in="BackgroundImageFix" stdDeviation="18"/>
      <feColorMatrix in="SourceAlpha" values="0 0 0 0 0 0 0 0 0 0 0 0 0 0 0 0 0 0 127 0" result="hardAlpha"/>
      <feOffset dy="16"/>
      <feColorMatrix values="0 0 0 0 0.0627451 0 0 0 0 0.12549 0 0 0 0 0.231373 0 0 0 0.18 0"/>
      <feBlend in2="BackgroundImageFix" result="effect1_dropShadow_0_1"/>
      <feBlend in="SourceGraphic" in2="effect1_dropShadow_0_1" result="shape"/>
    </filter>
  </defs>
  <rect width="1200" height="860" rx="42" fill="url(#bg)"/>
  <g opacity=".16" stroke="#9FD1FF">
    <path d="M120 180H1080"/>
    <path d="M120 300H1080"/>
    <path d="M120 420H1080"/>
    <path d="M120 540H1080"/>
    <path d="M120 660H1080"/>
    <path d="M220 120V740"/>
    <path d="M380 120V740"/>
    <path d="M540 120V740"/>
    <path d="M700 120V740"/>
    <path d="M860 120V740"/>
  </g>
  <g filter="url(#shadow)">
    <rect x="124" y="128" width="952" height="612" rx="34" fill="url(#panel)"/>
    <rect x="124" y="128" width="952" height="78" rx="34" fill="#112448"/>
    <circle cx="174" cy="168" r="10" fill="#FF729F"/>
    <circle cx="208" cy="168" r="10" fill="#FFD978"/>
    <circle cx="242" cy="168" r="10" fill="#63D2AE"/>
    <text x="294" y="177" fill="#EAF4FF" font-family="Sora, Arial, sans-serif" font-size="28" font-weight="700">GeoPulse Live Desk</text>
    <rect x="164" y="232" width="584" height="420" rx="28" fill="url(#sea)"/>
    <path d="M250 350l82-46 96 14 58 40 76 10 38 46-20 64-98 44-116-16-78-42-60-86 22-28z" fill="#E8E0A3" opacity=".96"/>
    <path d="M478 538l88-40 78 2 36 34-20 54-90 26-84-10-34-28 26-38z" fill="#D9B18D" opacity=".96"/>
    <path d="M328 514l82-24 32 28-30 68-82 8-42-38 40-42z" fill="#A5D39E" opacity=".96"/>
    <path d="M596 330l54-24 50 16 18 48-24 42-76 8-40-34 18-56z" fill="#D9C8E8" opacity=".96"/>
    <path d="M528 392l82 32" stroke="#F9427C" stroke-width="8" stroke-linecap="round"/>
    <path d="M574 426l52 48" stroke="#F9427C" stroke-width="8" stroke-linecap="round"/>
    <path d="M446 530l74-20" stroke="#FFE48E" stroke-width="8" stroke-linecap="round"/>
    <path d="M520 510l34 60" stroke="#FFE48E" stroke-width="8" stroke-linecap="round"/>
    <circle cx="520" cy="510" r="18" fill="#10203B" stroke="#fff" stroke-width="6"/>
    <circle cx="606" cy="424" r="18" fill="#10203B" stroke="#fff" stroke-width="6"/>
    <circle cx="420" cy="544" r="18" fill="#10203B" stroke="#fff" stroke-width="6"/>
    <path d="M330 286l22 26-18 16-22-26 18-16z" fill="#10203B"/>
    <path d="M624 286l22 26-18 16-22-26 18-16z" fill="#10203B"/>
    <path d="M690 498l22 26-18 16-22-26 18-16z" fill="#10203B"/>
    <rect x="780" y="232" width="256" height="132" rx="24" fill="#13294F"/>
    <text x="816" y="280" fill="#DDEBFF" font-family="IBM Plex Mono, monospace" font-size="20" letter-spacing="2">LIVE SCENARIOS</text>
    <text x="816" y="330" fill="#fff" font-family="Sora, Arial, sans-serif" font-size="38" font-weight="700">12 active briefs</text>
    <rect x="780" y="384" width="256" height="120" rx="24" fill="#EEF5FF"/>
    <text x="816" y="428" fill="#63789D" font-family="IBM Plex Mono, monospace" font-size="18" letter-spacing="2">VIEWER SYNC</text>
    <path d="M816 466h150" stroke="#F9427C" stroke-width="10" stroke-linecap="round"/>
    <circle cx="962" cy="466" r="13" fill="#F9427C"/>
    <text x="816" y="492" fill="#10203B" font-family="Sora, Arial, sans-serif" font-size="26" font-weight="700">Realtime presentation feed</text>
    <rect x="780" y="522" width="256" height="130" rx="24" fill="#10203B"/>
    <text x="816" y="566" fill="#DDEBFF" font-family="IBM Plex Mono, monospace" font-size="18" letter-spacing="2">MAP STACK</text>
    <g fill="#EAF4FF">
      <rect x="816" y="592" width="86" height="14" rx="7"/>
      <rect x="816" y="620" width="132" height="14" rx="7" opacity=".82"/>
      <rect x="816" y="648" width="102" height="14" rx="7" opacity=".64"/>
    </g>
    <circle cx="980" cy="612" r="28" fill="#F9427C"/>
    <circle cx="980" cy="612" r="12" fill="#FFF4C1"/>
  </g>
  <g opacity=".85">
    <circle cx="970" cy="118" r="48" stroke="#8FD4FF" stroke-width="2"/>
    <circle cx="970" cy="118" r="74" stroke="#8FD4FF" stroke-width="2" opacity=".42"/>
    <circle cx="970" cy="118" r="100" stroke="#8FD4FF" stroke-width="2" opacity=".2"/>
  </g>
</svg>
